<svg width="16" height="17" viewBox="0 0 16 17" fill="none" xmlns="http://www.w3.org/2000/svg">
<path d="M14.9268 4.68008C14.2114 3.45436 13.241 2.48396 12.0154 1.76866C10.7896 1.05332 9.45142 0.695736 7.99987 0.695736C6.5485 0.695736 5.20987 1.05343 3.98434 1.76866C2.75862 2.48392 1.7883 3.45436 1.07292 4.68008C0.357652 5.90575 0 7.2442 0 8.69539C0 10.4386 0.508586 12.0061 1.52601 13.3984C2.54333 14.7908 3.85756 15.7542 5.46858 16.2889C5.65611 16.3237 5.79493 16.2992 5.88519 16.2161C5.97549 16.1328 6.02058 16.0286 6.02058 15.9037C6.02058 15.8829 6.01879 15.6955 6.01533 15.3412C6.01204 15.0323 6.01029 14.7233 6.01007 14.4143L5.77048 14.4558C5.61773 14.4838 5.42502 14.4956 5.19236 14.4923C4.95981 14.489 4.7184 14.4646 4.46844 14.4193C4.21838 14.3744 3.9858 14.2702 3.77051 14.1071C3.55532 13.9439 3.40257 13.7302 3.31227 13.4665L3.20811 13.2268C3.13868 13.0673 3.02937 12.89 2.88004 12.6957C2.73071 12.5012 2.57971 12.3693 2.42695 12.2999L2.35402 12.2477C2.30542 12.213 2.26033 12.1711 2.21863 12.1226C2.17696 12.074 2.14577 12.0254 2.12493 11.9768C2.10407 11.9281 2.12136 11.8881 2.177 11.8568C2.23264 11.8254 2.33318 11.8102 2.47908 11.8102L2.68733 11.8413C2.82623 11.8692 2.99803 11.9523 3.20296 12.0913C3.40778 12.2301 3.57616 12.4107 3.70812 12.6328C3.86792 12.9176 4.06044 13.1346 4.28624 13.2839C4.51186 13.4332 4.73934 13.5078 4.96846 13.5078C5.19758 13.5078 5.39547 13.4904 5.5622 13.4559C5.72875 13.4211 5.88501 13.3689 6.03091 13.2995C6.0934 12.8341 6.26356 12.4765 6.54124 12.2265C6.14547 12.1849 5.78964 12.1223 5.47358 12.039C5.1577 11.9556 4.83128 11.8202 4.49453 11.6326C4.1576 11.4451 3.8781 11.2124 3.65595 10.9348C3.43376 10.657 3.25141 10.2923 3.10916 9.84102C2.96684 9.38957 2.89566 8.8688 2.89566 8.27856C2.89566 7.43815 3.17002 6.72299 3.71863 6.13268C3.46163 5.50085 3.4859 4.79256 3.79149 4.00786C3.99288 3.94529 4.29153 3.99224 4.68731 4.14843C5.08316 4.30469 5.37299 4.43855 5.55709 4.54954C5.74119 4.66048 5.88869 4.7545 5.99982 4.83075C6.64577 4.65027 7.31237 4.56001 7.9998 4.56001C8.68723 4.56001 9.35397 4.65027 9.99996 4.83075L10.3958 4.58088C10.6664 4.41414 10.9861 4.26135 11.3539 4.12246C11.722 3.98363 12.0034 3.9454 12.1979 4.00797C12.5103 4.7927 12.5381 5.50096 12.2811 6.13279C12.8297 6.7231 13.1041 7.43844 13.1041 8.27867C13.1041 8.86891 13.0327 9.39132 12.8906 9.84624C12.7483 10.3012 12.5644 10.6656 12.3388 10.94C12.1129 11.2144 11.8316 11.4453 11.4949 11.6327C11.158 11.8202 10.8315 11.9556 10.5156 12.039C10.1996 12.1224 9.84377 12.185 9.44799 12.2267C9.80897 12.5391 9.98949 13.0322 9.98949 13.7057V15.9034C9.98949 16.0283 10.0329 16.1325 10.1198 16.2158C10.2066 16.2989 10.3437 16.3234 10.5312 16.2886C12.1424 15.754 13.4567 14.7905 14.4739 13.3981C15.4911 12.0058 15.9999 10.4383 15.9999 8.6951C15.9995 7.24409 15.6417 5.90575 14.9268 4.68008Z" fill="#FAFAFA"/>
</svg>
