<svg width="19" height="20" viewBox="0 0 19 20" fill="none" xmlns="http://www.w3.org/2000/svg">
<path d="M12.5 4V16C12.5 16.5933 12.6759 17.1734 13.0056 17.6667C13.3352 18.1601 13.8038 18.5446 14.352 18.7716C14.9001 18.9987 15.5033 19.0581 16.0853 18.9424C16.6672 18.8266 17.2018 18.5409 17.6213 18.1213C18.0409 17.7018 18.3266 17.1672 18.4424 16.5853C18.5581 16.0033 18.4987 15.4001 18.2716 14.852C18.0446 14.3038 17.6601 13.8352 17.1667 13.5056C16.6734 13.1759 16.0933 13 15.5 13H3.5C2.90666 13 2.32664 13.1759 1.83329 13.5056C1.33994 13.8352 0.955426 14.3038 0.728363 14.852C0.5013 15.4001 0.44189 16.0033 0.557646 16.5853C0.673401 17.1672 0.959124 17.7018 1.37868 18.1213C1.79824 18.5409 2.33279 18.8266 2.91473 18.9424C3.49667 19.0581 4.09987 18.9987 4.64805 18.7716C5.19623 18.5446 5.66477 18.1601 5.99441 17.6667C6.32405 17.1734 6.5 16.5933 6.5 16V4C6.5 3.40666 6.32405 2.82664 5.99441 2.33329C5.66477 1.83994 5.19623 1.45543 4.64805 1.22836C4.09987 1.0013 3.49667 0.94189 2.91473 1.05765C2.33279 1.1734 1.79824 1.45912 1.37868 1.87868C0.959124 2.29824 0.673401 2.83279 0.557646 3.41473C0.44189 3.99667 0.5013 4.59987 0.728363 5.14805C0.955426 5.69623 1.33994 6.16477 1.83329 6.49441C2.32664 6.82405 2.90666 7 3.5 7H15.5C16.0933 7 16.6734 6.82405 17.1667 6.49441C17.6601 6.16477 18.0446 5.69623 18.2716 5.14805C18.4987 4.59987 18.5581 3.99667 18.4424 3.41473C18.3266 2.83279 18.0409 2.29824 17.6213 1.87868C17.2018 1.45912 16.6672 1.1734 16.0853 1.05765C15.5033 0.94189 14.9001 1.0013 14.352 1.22836C13.8038 1.45543 13.3352 1.83994 13.0056 2.33329C12.6759 2.82664 12.5 3.40666 12.5 4Z" stroke="white" stroke-linecap="round" stroke-linejoin="round"/>
</svg>
